solid demoparts/testAndSupports.STL
facet normal 0.000000 0.000000 1.000000
outer loop
vertex 50.799999 0.000000 57.849648
vertex 50.799999 29.864742 57.849648
vertex 0.000000 0.000000 57.849648
endloop
endfacet
facet normal 0.000000 0.000000 1.000000
outer loop
vertex 0.000000 0.000000 57.849648
vertex 50.799999 29.864742 57.849648
vertex 0.000000 29.864742 57.849648
endloop
endfacet
facet normal 0.000000 -1.000000 0.000000
outer loop
vertex 50.799999 0.000000 5.000000
vertex 50.799999 0.000000 57.849648
vertex 0.000000 0.000000 5.000000
endloop
endfacet
facet normal 0.000000 -1.000000 0.000000
outer loop
vertex 0.000000 0.000000 5.000000
vertex 50.799999 0.000000 57.849648
vertex 0.000000 0.000000 57.849648
endloop
endfacet
facet normal 0.000000 0.000000 -1.000000
outer loop
vertex 50.799999 29.864742 5.000000
vertex 50.799999 0.000000 5.000000
vertex 0.000000 29.864742 5.000000
endloop
endfacet
facet normal 0.000000 0.000000 -1.000000
outer loop
vertex 0.000000 29.864742 5.000000
vertex 50.799999 0.000000 5.000000
vertex 0.000000 0.000000 5.000000
endloop
endfacet
facet normal 0.000000 1.000000 0.000000
outer loop
vertex 50.799999 29.864742 57.849648
vertex 50.799999 29.864742 5.000000
vertex 0.000000 29.864742 57.849648
endloop
endfacet
facet normal 0.000000 1.000000 0.000000
outer loop
vertex 0.000000 29.864742 57.849648
vertex 50.799999 29.864742 5.000000
vertex 0.000000 29.864742 5.000000
endloop
endfacet
facet normal 1.000000 0.000000 0.000000
outer loop
vertex 50.799999 0.000000 5.000000
vertex 50.799999 29.864742 5.000000
vertex 50.799999 0.000000 57.849648
endloop
endfacet
facet normal 1.000000 0.000000 0.000000
outer loop
vertex 50.799999 0.000000 57.849648
vertex 50.799999 29.864742 5.000000
vertex 50.799999 29.864742 57.849648
endloop
endfacet
facet normal -1.000000 0.000000 0.000000
outer loop
vertex 0.000000 29.864742 5.000000
vertex 0.000000 0.000000 5.000000
vertex 0.000000 29.864742 57.849648
endloop
endfacet
facet normal -1.000000 0.000000 0.000000
outer loop
vertex 0.000000 29.864742 57.849648
vertex 0.000000 0.000000 5.000000
vertex 0.000000 0.000000 57.849648
endloop
endfacet
facet normal 0.000000 -5.000000 0.000000
outer loop
vertex 33.366666 20.409828 5.000000
vertex 33.366666 20.409828 0.000000
vertex 34.366666 20.409828 0.000000
endloop
endfacet
facet normal -0.000000 -5.000000 -0.000000
outer loop
vertex 34.366666 20.409828 0.000000
vertex 34.366666 20.409828 5.000000
vertex 33.366666 20.409828 5.000000
endloop
endfacet
facet normal -5.000000 0.000000 0.000000
outer loop
vertex 34.366666 20.409828 5.000000
vertex 34.366666 20.409828 0.000000
vertex 34.366666 19.409828 0.000000
endloop
endfacet
facet normal -5.000000 0.000000 0.000000
outer loop
vertex 34.366666 19.409828 0.000000
vertex 34.366666 19.409828 5.000000
vertex 34.366666 20.409828 5.000000
endloop
endfacet
facet normal 0.000000 5.000000 -0.000000
outer loop
vertex 34.366666 19.409828 5.000000
vertex 34.366666 19.409828 0.000000
vertex 33.366666 19.409828 0.000000
endloop
endfacet
facet normal -0.000000 5.000000 0.000000
outer loop
vertex 33.366666 19.409828 0.000000
vertex 33.366666 19.409828 5.000000
vertex 34.366666 19.409828 5.000000
endloop
endfacet
facet normal 5.000000 0.000000 0.000000
outer loop
vertex 33.366666 19.409828 5.000000
vertex 33.366666 19.409828 0.000000
vertex 33.366666 20.409828 0.000000
endloop
endfacet
facet normal 5.000000 0.000000 0.000000
outer loop
vertex 33.366666 20.409828 0.000000
vertex 33.366666 20.409828 5.000000
vertex 33.366666 19.409828 5.000000
endloop
endfacet
facet normal 0.000000 -5.000000 0.000000
outer loop
vertex 16.433333 10.454914 5.000000
vertex 16.433333 10.454914 0.000000
vertex 17.433333 10.454914 0.000000
endloop
endfacet
facet normal -0.000000 -5.000000 -0.000000
outer loop
vertex 17.433333 10.454914 0.000000
vertex 17.433333 10.454914 5.000000
vertex 16.433333 10.454914 5.000000
endloop
endfacet
facet normal -5.000000 0.000000 0.000000
outer loop
vertex 17.433333 10.454914 5.000000
vertex 17.433333 10.454914 0.000000
vertex 17.433333 9.454914 0.000000
endloop
endfacet
facet normal -5.000000 0.000000 0.000000
outer loop
vertex 17.433333 9.454914 0.000000
vertex 17.433333 9.454914 5.000000
vertex 17.433333 10.454914 5.000000
endloop
endfacet
facet normal 0.000000 5.000000 -0.000000
outer loop
vertex 17.433333 9.454914 5.000000
vertex 17.433333 9.454914 0.000000
vertex 16.433333 9.454914 0.000000
endloop
endfacet
facet normal -0.000000 5.000000 0.000000
outer loop
vertex 16.433333 9.454914 0.000000
vertex 16.433333 9.454914 5.000000
vertex 17.433333 9.454914 5.000000
endloop
endfacet
facet normal 5.000000 0.000000 0.000000
outer loop
vertex 16.433333 9.454914 5.000000
vertex 16.433333 9.454914 0.000000
vertex 16.433333 10.454914 0.000000
endloop
endfacet
facet normal 5.000000 0.000000 0.000000
outer loop
vertex 16.433333 10.454914 0.000000
vertex 16.433333 10.454914 5.000000
vertex 16.433333 9.454914 5.000000
endloop
endfacet
endsolid demoparts/testAndSupports.STL
