solid bob.STL
facet normal 0.000000 0.000000 1.000000
outer loop
vertex 50.799999 0.000000 57.849648
vertex 50.799999 29.864742 57.849648
vertex 0.000000 0.000000 57.849648
endloop
endfacet
facet normal 0.000000 0.000000 1.000000
outer loop
vertex 0.000000 0.000000 57.849648
vertex 50.799999 29.864742 57.849648
vertex 0.000000 29.864742 57.849648
endloop
endfacet
facet normal 0.000000 -1.000000 0.000000
outer loop
vertex 50.799999 0.000000 5.000000
vertex 50.799999 0.000000 57.849648
vertex 0.000000 0.000000 5.000000
endloop
endfacet
facet normal 0.000000 -1.000000 0.000000
outer loop
vertex 0.000000 0.000000 5.000000
vertex 50.799999 0.000000 57.849648
vertex 0.000000 0.000000 57.849648
endloop
endfacet
facet normal 0.000000 0.000000 -1.000000
outer loop
vertex 50.799999 29.864742 5.000000
vertex 50.799999 0.000000 5.000000
vertex 0.000000 29.864742 5.000000
endloop
endfacet
facet normal 0.000000 0.000000 -1.000000
outer loop
vertex 0.000000 29.864742 5.000000
vertex 50.799999 0.000000 5.000000
vertex 0.000000 0.000000 5.000000
endloop
endfacet
facet normal 0.000000 1.000000 0.000000
outer loop
vertex 50.799999 29.864742 57.849648
vertex 50.799999 29.864742 5.000000
vertex 0.000000 29.864742 57.849648
endloop
endfacet
facet normal 0.000000 1.000000 0.000000
outer loop
vertex 0.000000 29.864742 57.849648
vertex 50.799999 29.864742 5.000000
vertex 0.000000 29.864742 5.000000
endloop
endfacet
facet normal 1.000000 0.000000 0.000000
outer loop
vertex 50.799999 0.000000 5.000000
vertex 50.799999 29.864742 5.000000
vertex 50.799999 0.000000 57.849648
endloop
endfacet
facet normal 1.000000 0.000000 0.000000
outer loop
vertex 50.799999 0.000000 57.849648
vertex 50.799999 29.864742 5.000000
vertex 50.799999 29.864742 57.849648
endloop
endfacet
facet normal -1.000000 0.000000 0.000000
outer loop
vertex 0.000000 29.864742 5.000000
vertex 0.000000 0.000000 5.000000
vertex 0.000000 29.864742 57.849648
endloop
endfacet
facet normal -1.000000 0.000000 0.000000
outer loop
vertex 0.000000 29.864742 57.849648
vertex 0.000000 0.000000 5.000000
vertex 0.000000 0.000000 57.849648
endloop
endfacet
endsolid bob.STL
